<svg width="14" height="16" viewBox="0 0 14 16" fill="none" xmlns="http://www.w3.org/2000/svg">
<path fill-rule="evenodd" clip-rule="evenodd" d="M8.1505 15.865C8.2345 15.943 8.3445 15.991 8.4675 15.997C8.4712 15.997 8.47447 15.9979 8.47761 15.9987C8.48126 15.9996 8.48474 16.0005 8.4885 16C8.6685 16 8.8195 15.9 8.9075 15.756L13.8605 10.804C14.0465 10.617 14.0465 10.315 13.8605 10.129C13.6735 9.941 13.3715 9.941 13.1845 10.129L8.9885 14.324L8.9885 0.5C8.9885 0.224 8.7645 -2.28851e-07 8.4885 -2.40915e-07C8.2125 -2.5298e-07 7.9885 0.224 7.9885 0.5L7.9885 15.5C7.9885 15.503 7.98925 15.506 7.99 15.509C7.99075 15.512 7.9915 15.515 7.9915 15.518C7.9915 15.52 7.9925 15.52 7.9925 15.52C7.9965 15.643 8.0445 15.752 8.1225 15.837C8.125 15.8395 8.12575 15.8433 8.1265 15.847C8.12725 15.8507 8.128 15.8545 8.1305 15.857C8.13303 15.8595 8.13659 15.8603 8.14027 15.861C8.14385 15.8618 8.14754 15.8625 8.1505 15.865ZM5.8245 0.136C5.7405 0.0579996 5.6315 0.0109996 5.5085 0.00499963L5.5055 0.00599963C5.50187 0.00599963 5.4985 0.00492115 5.49526 0.0038842C5.49227 0.00292412 5.48938 0.00199963 5.4865 0.00199963C5.3075 0.00199962 5.1565 0.102 5.0685 0.246L0.130501 5.197C-0.0564997 5.385 -0.0564997 5.686 0.130501 5.873C0.3165 6.06 0.6175 6.06 0.8045 5.873L4.9895 1.678L4.9895 15.502C4.9895 15.777 5.2135 16.002 5.4885 16.002C5.7645 16.002 5.9875 15.777 5.9875 15.502L5.9875 0.502C5.9875 0.4985 5.9865 0.4955 5.9855 0.4925C5.9845 0.4895 5.9835 0.4865 5.9835 0.483L5.9835 0.482C5.9785 0.359 5.9305 0.25 5.8535 0.166C5.85053 0.163029 5.84976 0.159078 5.84902 0.155238C5.84826 0.151323 5.84753 0.147524 5.8445 0.145C5.84136 0.141863 5.83741 0.140913 5.83363 0.140006C5.83018 0.139178 5.82689 0.138386 5.8245 0.136Z" fill="#727272"/>
</svg>
